<?xml version="1.0" encoding="UTF-8" standalone="no"?>
<svg
   xmlns:dc="http://purl.org/dc/elements/1.1/"
   xmlns:cc="http://creativecommons.org/ns#"
   xmlns:rdf="http://www.w3.org/1999/02/22-rdf-syntax-ns#"
   xmlns:svg="http://www.w3.org/2000/svg"
   xmlns="http://www.w3.org/2000/svg"
   viewBox="0 0 598.92267 363.51199"
   height="363.51199"
   width="598.92267"
   xml:space="preserve"
   id="svg2"
   version="1.1"><metadata
     id="metadata8"><rdf:RDF><cc:Work
         rdf:about=""><dc:format>image/svg+xml</dc:format><dc:type
           rdf:resource="http://purl.org/dc/dcmitype/StillImage" /></cc:Work></rdf:RDF></metadata><defs
     id="defs6"><clipPath
       id="clipPath26"
       clipPathUnits="userSpaceOnUse"><path
         id="path24"
         d="M 0,272.634 H 449.192 V 0 H 0 Z" /></clipPath><clipPath
       id="clipPath34"
       clipPathUnits="userSpaceOnUse"><path
         id="path32"
         d="M 15.9862,253.65 H 433.206 V 18.98 H 15.9862 Z" /></clipPath></defs><g
     transform="matrix(1.3333333,0,0,-1.3333333,0,363.512)"
     id="g10"><g
       transform="translate(15.9813,188.9014)"
       id="g12"><path
         id="path14"
         style="fill:#b3b4b4;fill-opacity:1;fill-rule:nonzero;stroke:none"
         d="m 0,0 204.769,-162.64 13.115,2.535 L 417.23,0 V 1.253 H 0 Z" /></g><g
       transform="translate(249.3743,41.0186)"
       id="g16"><path
         id="path18"
         style="fill:#b3b4b5;fill-opacity:1;fill-rule:nonzero;stroke:none"
         d="M 0,0 157.045,148.805 183.837,147.883 -16.512,-13.282" /></g><g
       id="g20"><g
         clip-path="url(#clipPath26)"
         id="g22"><g
           id="g28"><g
             id="g30" /><g
             id="g246"><g
               id="g244"
               clip-path="url(#clipPath34)"><g
                 id="g38"
                 transform="translate(433.2064,190.1499)"><path
                   id="path36"
                   style="fill:#b3b5b5;fill-opacity:1;fill-rule:nonzero;stroke:none"
                   d="m 0,0 v -1.25 h -2.45 -45.35 -107.24 -1.3 -106.98 -1.31 -94.86 -54.98 -1.44 V -1 -0.62 h -1.31 V -0.42 0 h 1.21 59.03 5.84 101.21 52.27 81.57 44.9 11.299 1.75 15.421 z" /></g><g
                 id="g42"
                 transform="translate(432.8861,190.6401)"><path
                   id="path40"
                   style="fill:#000000;fill-opacity:1;fill-rule:nonzero;stroke:none"
                   d="M 0,0 0.32,-0.49 H -42.399 -57.82 c 0,0.67 0.01,1.34 0.01,2.01 -0.02,15.76 0.03,31.53 -0.04,47.29 -0.78,-1.77 -1.08,-3.68 -1.66,-5.51 C -63.3,29.66 -67.09,16.02 -70.87,2.38 h -16.51 c -3.98,14.41 -7.95,28.82 -11.92,43.22 -0.34,1.09 -0.5,2.22 -1.01,3.25 -0.089,-15.49 -0.02,-30.98 -0.04,-46.47 h -15.42 c 0.01,20.18 0,40.37 0,60.55 h 24.85 c 3.95,-13.68 7.85,-27.36 11.84,-41.03 0.931,2.37 1.431,4.86 2.19,7.28 3.22,11.25 6.43,22.5 9.65,33.75 h 24.841 L -0.189,0.27 Z" /></g><g
                 id="g46"
                 transform="translate(430.7562,188.8999)"><path
                   id="path44"
                   style="fill:#b3b4b4;fill-opacity:1;fill-rule:nonzero;stroke:none"
                   d="m 0,0 -89.1,-72.56 c -0.14,0.61 -0.29,1.22 -0.51,1.81 -0.85,2.23 -2.55,3.831 -4.43,4.331 -2.97,0.789 -6.03,-0.031 -8.86,-1.211 -3.33,-1.37 -6.4,-3.57 -9.36,-5.92 -1.02,-0.89 -2,-1.83 -2.96,-2.82 l -1.27,1.201 L -45.35,0 Z" /></g><g
                 id="g50"
                 transform="translate(400.5863,114.9805)"><path
                   id="path48"
                   style="fill:#000000;fill-opacity:1;fill-rule:nonzero;stroke:none"
                   d="m 0,0 c 1.34,1.159 2.96,2.399 4.63,1.569 -3.13,-2.21 -5.92,-5.12 -8.43,-8.38 -3.73,-4.879 -7.42,-9.79 -11.18,-14.639 -2.76,-3.49 -5.43,-7.111 -8.291,-10.471 -2.219,-2.569 -4.579,-5 -7.25,-6.739 -3.159,-2.181 -7.579,-2.17 -10.179,1.309 -2.04,2.731 -2.5,6.8 -2.071,10.401 0.551,4.3 2.041,8.3 3.841,11.96 2.909,5.79 6.84,10.79 11.5,14.25 -3.01,-0.29 -6.03,-1.021 -9.06,-0.611 -0.94,-0.12 -2.1,0.43 -2.83,-0.589 -1.951,-2.31 -3.88,-4.661 -5.78,-7.04 -1.19,-1.39 -2.16,-3.1 -3.41,-4.42 -0.511,-0.34 -0.97,-0.781 -1.4,-1.25 l -1.53,1.849 c 3.61,4.191 7.06,8.63 10.53,13.011 0.71,3.069 1.22,6.229 2.12,9.22 0.28,0.799 0.74,1.889 1.56,1.74 0.74,-0.051 1.169,-0.99 1.2,-1.851 0.06,-1.34 -0.31,-2.74 0.14,-4.019 0.26,-0.891 0.96,-1.33 1.64,-1.521 2.58,-0.8 5.25,-0.809 7.84,-1.529 1.78,-0.5 3.62,-1.07 5.13,-2.431 1.59,-1.46 2.11,-4.24 1.71,-6.609 -0.43,-2.46 -1.53,-4.61 -2.65,-6.631 -3.31,-6.04 -6.77,-11.939 -10.051,-18 -0.589,-1.199 -1.199,-2.559 -1.079,-4.029 0.27,-0.981 1.289,-0.78 1.9,-0.511 1.66,0.841 3.03,2.391 4.38,3.851 6.77,7.799 13.06,16.25 19.74,24.17 2.36,2.759 4.7,5.599 7.33,7.94" /></g><g
                 id="g54"
                 transform="translate(385.4066,188.8999)"><path
                   id="path52"
                   style="fill:#dbdcdb;fill-opacity:1;fill-rule:nonzero;stroke:none"
                   d="m 0,0 -71.141,-75.169 -30.2,-31.901 c 0.04,0.18 0.08,0.35 0.12,0.52 0.731,2.69 1.861,5.15 2.941,7.62 4.229,9.65 8.349,19.38 12.469,29.12 6.521,15.391 13.04,30.79 19.561,46.18 -3.811,-0.55 -7.631,-1.11 -11.44,-1.68 -5.77,-12.09 -11.54,-24.17 -17.31,-36.25 -3.811,-8.45 -9.351,-15.27 -14.62,-22.19 -0.95,-1.01 -1.61,-2.36 -2.45,-3.48 -0.13,-0.16 -0.25,-0.32 -0.38,-0.47 -3.88,-4.9 -7.62,-9.969 -11.651,-14.68 -2.25,-2.59 -4.519,-5.23 -7.12,-7.25 -0.849,-0.59 -1.84,-1.36 -2.84,-0.95 -0.719,0.47 -0.509,1.7 -0.269,2.48 0.989,3.38 2.37,6.56 3.68,9.75 4.57,10.75 9.15,21.5 13.73,32.25 l -11.461,-0.99 5.151,16.35 c -0.01,-1.46 0.31,-2.91 1.02,-4.05 1.109,-1.69 2.96,-2.129 4.59,-1.95 2.989,0.281 5.609,3.7 5.7,7.56 0.09,1.77 -0.41,3.63 -1.471,4.81 -1.29,1.53 -3.229,1.78 -4.87,1.22 -1.33,-0.51 -2.55,-1.519 -3.479,-2.86 L -107.24,0 Z" /></g><g
                 id="g58"
                 transform="translate(336.5658,112.2002)"><path
                   id="path56"
                   style="fill:#000000;fill-opacity:1;fill-rule:nonzero;stroke:none"
                   d="M 0,0 C 0.261,1.13 0.421,2.31 0.381,3.52 0.341,5.49 -0.989,7.729 -2.67,7.33 -4.26,6.81 -5.64,5.54 -6.89,4.22 c -2.65,-2.95 -4.75,-6.611 -6.67,-10.361 -1.24,-2.389 -2.29,-4.929 -3.23,-7.54 -0.539,-1.509 -1.06,-3.039 -1.52,-4.59 6,1.161 11.531,5.46 15.35,11.451 C -1.72,-4.8 -0.569,-2.5 0,0 m 12.58,-10.021 1.53,-1.849 c -0.719,-0.8 -1.38,-1.71 -2.099,-2.51 -3.5,-4.13 -7.04,-8.221 -10.721,-12.09 -4.199,-4.301 -8.8,-8.22 -14.019,-10.131 -3.771,-1.25 -7.901,-1.379 -11.561,0.46 -3.35,1.71 -5.89,5.641 -6.73,10.101 -0.049,0.229 -0.07,0.46 -0.11,0.68 -0.55,3.5 -0.25,7.17 0.691,10.52 l -1.93,1.51 c 2.819,3.57 5.649,7.11 8.559,10.54 0.901,1.09 1.821,2.13 2.781,3.12 0.96,0.989 1.939,1.93 2.96,2.819 2.96,2.351 6.029,4.551 9.359,5.92 2.83,1.181 5.891,2 8.86,1.211 C 2.03,9.78 3.73,8.18 4.58,5.95 4.801,5.359 4.95,4.75 5.091,4.14 5.74,1.06 5.33,-2.351 4.051,-5.08 1.91,-9.771 -1.72,-12.931 -5.43,-15.311 c -4.269,-2.729 -8.899,-4.409 -13.599,-5.419 -0.861,-3.42 -2.061,-6.76 -2.361,-10.36 -0.219,-1.471 0.611,-2.85 1.731,-3.11 2.139,-0.58 4.38,-0.151 6.47,0.54 4.37,1.65 8.24,4.87 11.82,8.389 4.26,4.291 8.34,8.861 12.39,13.471 0.519,0.59 1.04,1.18 1.559,1.779" /></g><g
                 id="g62"
                 transform="translate(336.9466,115.7197)"><path
                   id="path60"
                   style="fill:#b3b4b4;fill-opacity:1;fill-rule:nonzero;stroke:none"
                   d="m 0,0 c 0.04,-1.21 -0.12,-2.39 -0.381,-3.52 l -16.79,-13.68 c 0.941,2.61 1.99,5.15 3.231,7.54 1.919,3.75 4.019,7.41 6.669,10.36 1.25,1.321 2.63,2.59 4.22,3.111 C -1.37,4.21 -0.04,1.971 0,0" /></g><g
                 id="g66"
                 transform="translate(319.1566,165.27)"><path
                   id="path64"
                   style="fill:#000000;fill-opacity:1;fill-rule:nonzero;stroke:none"
                   d="m 0,0 c -6.521,-15.39 -13.04,-30.79 -19.561,-46.18 -4.12,-9.74 -8.24,-19.47 -12.469,-29.12 -1.08,-2.47 -2.21,-4.93 -2.941,-7.62 -0.04,-0.17 -0.08,-0.34 -0.12,-0.52 -0.199,-0.9 -0.309,-1.89 0.101,-2.71 0.59,-0.97 1.719,-0.9 2.54,-0.52 1.609,0.8 2.96,2.26 4.26,3.69 4.509,5.39 8.849,11.02 13.23,16.58 l 1.93,-1.51 c -2.781,-3.66 -5.531,-7.35 -8.321,-10.99 -2.689,-3.41 -5.46,-6.79 -8.7,-9.33 -1.96,-1.58 -4.26,-2.6 -6.59,-2.33 -1.319,0.08 -2.639,0.61 -3.759,1.52 -0.8,0.65 -1.51,1.49 -2.031,2.53 -1.549,3.08 -1.549,7.02 -0.83,10.46 1.08,5.24 2.96,10.13 4.901,14.93 1.059,2.47 2.03,5 3.269,7.34 -1.639,-1.76 -3.109,-3.74 -4.569,-5.74 -1.42,-1.84 -2.83,-3.69 -4.24,-5.54 l -1.92,1.46 c 0.84,1.12 1.5,2.47 2.45,3.48 5.269,6.92 10.809,13.74 14.62,22.19 5.77,12.08 11.54,24.16 17.31,36.25 C -7.631,-1.11 -3.811,-0.55 0,0" /></g><g
                 id="g70"
                 transform="translate(314.266,113.7305)"><path
                   id="path68"
                   style="fill:#b3b4b4;fill-opacity:1;fill-rule:nonzero;stroke:none"
                   d="m 0,0 1.271,-1.2 c -0.96,-0.99 -1.88,-2.03 -2.781,-3.12 -2.91,-3.43 -5.74,-6.97 -8.559,-10.54 -4.381,-5.561 -8.721,-11.191 -13.231,-16.58 -1.3,-1.43 -2.65,-2.89 -4.26,-3.691 -0.82,-0.38 -1.95,-0.449 -2.54,0.521 -0.41,0.82 -0.299,1.809 -0.1,2.71 z" /></g><g
                 id="g74"
                 transform="translate(309.2562,253.54)"><path
                   id="path72"
                   style="fill:#000000;fill-opacity:1;fill-rule:nonzero;stroke:none"
                   d="m 0,0 c -0.06,-11.87 0.01,-23.74 -0.04,-35.61 -0.07,-5.22 -0.79,-10.63 -3.85,-15.24 -2.38,-3.67 -6.36,-6.49 -10.91,-8.03 -6.25,-2.15 -13.13,-2.31 -19.77,-2.03 -5.77,0.28 -11.72,1.22 -16.6,4.01 -4.37,2.52 -7.66,6.41 -9.01,10.77 -1.78,5.46 -1.64,11.17 -1.62,16.78 V 0.03 h 17.97 v -34.9 c 0,-3.22 0.14,-6.65 2.07,-9.52 1.48,-2.24 4.25,-3.68 7.16,-4.15 2.96,-0.47 6.07,-0.46 8.98,0.27 2.51,0.62 4.72,2.12 5.88,4.13 1.59,2.7 1.73,5.81 1.74,8.77 0.01,11.8 0,23.6 0,35.4 C -12,0.01 -6,0.06 0,0" /></g><g
                 id="g78"
                 transform="translate(305.4359,86.8398)"><path
                   id="path76"
                   style="fill:#b3b4b4;fill-opacity:1;fill-rule:nonzero;stroke:none"
                   d="m 0,0 -72.569,-59.1 45.889,48.491 c 1.12,-0.911 2.441,-1.441 3.76,-1.521 2.33,-0.269 4.63,0.75 6.59,2.33 3.24,2.54 6.011,5.92 8.7,9.33 2.79,3.64 5.54,7.33 8.32,10.991 C -0.25,7.17 -0.55,3.5 0,0" /></g><g
                 id="g82"
                 transform="translate(284.0658,111.4902)"><path
                   id="path80"
                   style="fill:#dbdcdb;fill-opacity:1;fill-rule:nonzero;stroke:none"
                   d="m 0,0 c -1.239,-2.34 -2.21,-4.87 -3.27,-7.34 -1.94,-4.801 -3.82,-9.69 -4.9,-14.931 -0.72,-3.439 -0.72,-7.379 0.83,-10.459 0.521,-1.041 1.231,-1.88 2.03,-2.53 l -45.889,-48.49 -8.24,-8.71 18.58,58.95 c 0.149,-0.261 0.29,-0.511 0.469,-0.75 1.47,-2.08 3.79,-2.711 5.901,-2.52 3.399,0.219 6.51,2.4 9.13,5.07 3.83,3.87 7.309,8.26 10.71,12.739 1.95,2.551 3.889,5.12 5.839,7.691 1.411,1.849 2.821,3.7 4.241,5.54 1.46,2 2.929,3.98 4.569,5.74" /></g><g
                 id="g86"
                 transform="translate(278.1664,188.8999)"><path
                   id="path84"
                   style="fill:#b3b4b4;fill-opacity:1;fill-rule:nonzero;stroke:none"
                   d="m 0,0 -14.5,-46.01 c -0.37,-0.53 -0.7,-1.11 -0.96,-1.75 -0.351,-0.909 -0.52,-1.949 -0.53,-2.98 l -5.151,-16.35 c -0.319,-0.03 -0.63,-0.05 -0.939,-0.079 -0.25,-0.421 -0.51,-0.811 -0.771,-1.211 L -1.3,0 Z" /></g><g
                 id="g90"
                 transform="translate(276.8665,188.8999)"><path
                   id="path88"
                   style="fill:#ffffff;fill-opacity:1;fill-rule:nonzero;stroke:none"
                   d="m 0,0 -21.551,-68.38 c -1.75,-2.73 -3.729,-5.17 -5.679,-7.66 -1.06,-1.32 -2.09,-2.68 -3.14,-4.01 -0.351,-0.45 -0.7,-0.89 -1.061,-1.33 -1.34,-1.64 -2.849,-3.07 -4.069,-4.87 -3.33,-3.88 -6.681,-7.86 -10.7,-10.54 -2.321,-1.54 -4.96,-2.71 -7.611,-2.14 4.42,4.96 8.26,11.29 9.47,18.81 0.49,3.3 0.631,6.78 -0.029,10.06 -0.34,1.68 -1.221,3.32 -2.601,3.73 -1.759,0.68 -3.599,-0.23 -5.019,-1.58 -3.321,-3.12 -5.68,-7.69 -7.2,-12.549 -1.241,-3.841 -1.75,-8.121 -1.19,-12.241 0.38,-2.73 1.52,-5.19 2.869,-7.32 -3.449,-4.55 -7.449,-8.63 -12.189,-10.689 -0.22,-0.091 -0.45,-0.191 -0.68,-0.281 l -2.871,8.69 c 1.391,4.08 2.891,8.11 4.591,12 4.559,10.61 9.62,20.85 14.43,31.27 5.54,11.8 11.08,23.6 16.62,35.41 -4.05,-0.51 -8.111,-1.02 -12.161,-1.53 -6.099,-12.64 -12.2,-25.28 -18.299,-37.92 -0.75,-1.54 -1.431,-3.15 -2.39,-4.5 -1.46,-2.11 -3,-4.139 -4.48,-6.22 -1.74,-2.44 -3.54,-4.81 -5.351,-7.15 L -106.98,0 Z" /></g><g
                 id="g94"
                 transform="translate(273.3363,101.6699)"><path
                   id="path92"
                   style="fill:#000000;fill-opacity:1;fill-rule:nonzero;stroke:none"
                   d="m 0,0 1.92,-1.46 c -1.95,-2.57 -3.89,-5.14 -5.84,-7.69 -3.4,-4.48 -6.88,-8.87 -10.71,-12.74 -2.62,-2.67 -5.73,-4.85 -9.13,-5.07 -2.11,-0.19 -4.43,0.44 -5.9,2.521 -0.18,0.239 -0.32,0.489 -0.47,0.75 -0.31,0.549 -0.55,1.129 -0.75,1.75 -0.66,2.059 -0.77,4.439 -0.57,6.629 0.38,4.46 2.07,8.46 3.77,12.3 1.79,4.15 3.6,8.29 5.42,12.42 -1.02,-1.17 -2.02,-2.349 -3,-3.55 h -0.011 l -1.569,1.32 c 1.05,1.33 2.08,2.69 3.14,4.01 1.95,2.49 3.929,4.93 5.679,7.66 0.261,0.4 0.521,0.79 0.771,1.211 0.31,0.029 0.62,0.049 0.939,0.079 l 11.461,0.99 c -4.58,-10.75 -9.16,-21.5 -13.73,-32.25 -1.31,-3.19 -2.691,-6.37 -3.68,-9.75 -0.24,-0.78 -0.45,-2.01 0.27,-2.48 1,-0.41 1.99,0.36 2.84,0.95 2.6,2.02 4.87,4.66 7.12,7.25 4.03,4.711 7.77,9.78 11.65,14.68 0.13,0.15 0.25,0.31 0.38,0.47" /></g><g
                 id="g98"
                 transform="translate(272.016,144.5303)"><path
                   id="path96"
                   style="fill:#000000;fill-opacity:1;fill-rule:nonzero;stroke:none"
                   d="m 0,0 c 1.061,-1.181 1.561,-3.04 1.471,-4.811 -0.091,-3.859 -2.711,-7.279 -5.7,-7.559 -1.63,-0.18 -3.481,0.26 -4.59,1.95 -0.71,1.14 -1.031,2.59 -1.021,4.05 0.01,1.03 0.18,2.07 0.53,2.979 0.26,0.641 0.59,1.221 0.96,1.75 C -7.42,-0.3 -6.2,0.71 -4.87,1.22 -3.229,1.779 -1.29,1.529 0,0" /></g><g
                 id="g102"
                 transform="translate(225.4866,233.8999)"><path
                   id="path100"
                   style="fill:#000000;fill-opacity:1;fill-rule:nonzero;stroke:none"
                   d="m 0,0 c 0.17,1.98 -0.36,4.21 -2.24,5.51 -2.29,1.57 -5.361,1.78 -8.17,1.9 -4.611,0.08 -9.22,0.02 -13.831,0.04 V -6.4 c 4.401,0.02 8.801,-0.04 13.201,0.05 2.84,0.13 5.859,0.38 8.29,1.8 1.72,1 2.649,2.79 2.75,4.55 M 23.89,-41.37 H 10.06 3.149 c -3.21,4.67 -6.46,9.31 -9.679,13.97 -1.561,2.22 -3.061,4.48 -4.92,6.53 -1.45,1.59 -3.21,3.12 -5.521,3.72 -2.349,0.61 -4.84,0.42 -7.27,0.46 V -41.37 H -42.21 v 60.11 h 28.069 c 6.611,-0.05 13.38,0.28 19.811,-1.33 4.05,-0.99 7.659,-3.28 9.8,-6.4 C 18.359,6.84 18.96,1.66 17.569,-3 16.6,-6.25 14.27,-9.17 11.09,-11.13 7.949,-13.1 4.189,-14.22 0.38,-14.78 c 1.109,-0.63 2.359,-1.04 3.47,-1.67 4.469,-2.43 7.729,-6.16 10.33,-10.05 3.25,-4.95 6.469,-9.92 9.71,-14.87" /></g><g
                 id="g106"
                 transform="translate(248.0765,107.5303)"><path
                   id="path104"
                   style="fill:#ffffff;fill-opacity:1;fill-rule:nonzero;stroke:none"
                   d="m 0,0 c 0.979,1.2 1.979,2.38 3,3.55 -1.82,-4.13 -3.63,-8.271 -5.42,-12.42 -1.7,-3.84 -3.391,-7.84 -3.77,-12.3 -0.201,-2.19 -0.09,-4.57 0.57,-6.63 l -17.87,-56.711 -17.38,52.681 c 1.01,0.399 1.99,0.89 2.939,1.45 4.191,2.48 7.781,6.319 11,10.5 4.29,-1.301 8.88,0.33 12.401,3.609 2.38,2.05 4.59,4.38 6.69,6.871 1.199,1.4 2.34,2.9 3.64,4.15 1.37,1.779 2.76,3.529 4.189,5.25 z" /></g><g
                 id="g110"
                 transform="translate(227.7962,101.8301)"><path
                   id="path108"
                   style="fill:#000000;fill-opacity:1;fill-rule:nonzero;stroke:none"
                   d="M 0,0 C 0.72,1.939 1.3,4.11 1,6.29 0.87,7.34 0.38,8.37 -0.42,8.75 -1.78,9.38 -3.32,8.96 -4.51,7.979 -7.95,5.15 -9.89,-0.46 -9.09,-5.63 -8.8,-7.6 -7.99,-9.39 -6.9,-10.82 -4.19,-7.7 -1.59,-4.26 0,0 M 18.7,7.02 20.27,5.7 C 18.84,3.979 17.45,2.229 16.08,0.45 14.78,-0.8 13.64,-2.3 12.44,-3.7 c -2.1,-2.49 -4.31,-4.821 -6.69,-6.87 -3.521,-3.28 -8.11,-4.91 -12.4,-3.61 -3.22,-4.18 -6.81,-8.02 -11,-10.5 -0.95,-0.56 -1.93,-1.05 -2.94,-1.45 -0.38,-0.15 -0.77,-0.29 -1.16,-0.41 -0.61,-0.19 -1.23,-0.34 -1.84,-0.44 l -0.32,2.32 c 0.48,0.05 0.96,0.16 1.43,0.31 0.4,0.13 0.78,0.27 1.17,0.43 0.23,0.09 0.46,0.19 0.68,0.28 4.74,2.06 8.74,6.14 12.19,10.69 -1.35,2.13 -2.49,4.59 -2.87,7.32 -0.56,4.12 -0.05,8.4 1.19,12.24 1.52,4.86 3.88,9.43 7.2,12.55 1.42,1.35 3.26,2.26 5.02,1.58 C 3.479,20.33 4.36,18.689 4.7,17.01 5.36,13.729 5.22,10.25 4.729,6.95 3.52,-0.57 -0.32,-6.9 -4.74,-11.86 c 2.65,-0.57 5.29,0.6 7.61,2.14 4.02,2.68 7.37,6.659 10.7,10.54 1.22,1.8 2.73,3.23 4.07,4.869 C 18,6.13 18.35,6.57 18.7,7.02" /></g><g
                 id="g114"
                 transform="translate(243.2064,77.9805)"><path
                   id="path112"
                   style="fill:#b3b4b4;fill-opacity:1;fill-rule:nonzero;stroke:none"
                   d="M 0,0 -18.58,-58.95 -18.601,-59 v 0.029 h -0.009 l -0.62,1.901 -17.93,54.38 c 0.39,0.12 0.78,0.259 1.16,0.41 L -18.62,-54.961 -0.75,1.75 C -0.55,1.13 -0.311,0.55 0,0" /></g><g
                 id="g118"
                 transform="translate(239.2562,165.2798)"><path
                   id="path116"
                   style="fill:#000000;fill-opacity:1;fill-rule:nonzero;stroke:none"
                   d="m 0,0 c -5.54,-11.81 -11.08,-23.61 -16.62,-35.41 -4.81,-10.42 -9.87,-20.66 -14.43,-31.27 -1.7,-3.89 -3.2,-7.92 -4.59,-12 -0.22,-0.65 -0.45,-1.29 -0.66,-1.94 -0.55,-1.66 -1.09,-3.32 -1.61,-4.99 -0.33,-1.01 0.22,-2.29 1.08,-2.45 0.49,-0.1 0.98,-0.109 1.46,-0.05 l 0.32,-2.32 c -1.16,-0.199 -2.34,-0.23 -3.51,-0.029 -2.08,0.33 -4.08,1.769 -5.19,4.069 -1.33,2.71 -1.45,6.07 -1.18,9.16 0.34,3.86 1.55,7.48 3.05,10.811 0.17,0.399 0.33,0.799 0.5,1.199 0.24,0.58 0.48,1.16 0.73,1.74 1.4,3.32 2.8,6.65 4.17,9.99 -1.77,-2.219 -3.53,-4.45 -5.24,-6.75 -0.2,-0.26 -0.41,-0.52 -0.61,-0.79 -0.09,-0.15 -0.2,-0.28 -0.3,-0.42 -0.85,-1.2 -1.79,-2.3 -2.92,-3.07 l -1.73,1.391 c 1.24,1.529 2.46,3.069 3.68,4.629 0.31,0.39 0.61,0.78 0.92,1.18 1.81,2.34 3.61,4.71 5.35,7.151 1.48,2.08 3.02,4.109 4.48,6.219 0.96,1.35 1.64,2.96 2.39,4.5 6.1,12.64 12.2,25.281 18.3,37.92 C -8.11,-1.02 -4.05,-0.51 0,0" /></g><g
                 id="g122"
                 transform="translate(228.7962,108.1201)"><path
                   id="path120"
                   style="fill:#ffffff;fill-opacity:1;fill-rule:nonzero;stroke:none"
                   d="m 0,0 c 0.3,-2.18 -0.28,-4.351 -1,-6.29 -1.59,-4.26 -4.19,-7.7 -6.9,-10.82 -1.09,1.43 -1.9,3.22 -2.19,5.19 -0.8,5.17 1.14,10.78 4.58,13.609 C -4.32,2.67 -2.78,3.09 -1.42,2.46 -0.62,2.08 -0.13,1.05 0,0" /></g><g
                 id="g126"
                 transform="translate(224.6058,19.0098)"><path
                   id="path124"
                   style="fill:#dbdcdb;fill-opacity:1;fill-rule:nonzero;stroke:none"
                   d="M 0,0 -0.01,-0.01 V 0 Z" /></g><g
                 id="g130"
                 transform="translate(223.9759,20.9102)"><path
                   id="path128"
                   style="fill:#dbdcdb;fill-opacity:1;fill-rule:nonzero;stroke:none"
                   d="m 0,0 0.62,-1.9 -6.45,7.25 -45,50.68 c 0.12,0.079 0.24,0.159 0.36,0.24 4.13,2.89 7.35,7.379 10.71,11.5 3.24,3.93 6.32,8.06 9.49,12.08 1.13,0.77 2.07,1.87 2.92,3.07 l 1.25,-3.771 c -0.17,-0.399 -0.33,-0.799 -0.5,-1.199 -1.5,-3.33 -2.71,-6.95 -3.05,-10.81 -0.27,-3.09 -0.15,-6.451 1.18,-9.161 1.11,-2.299 3.11,-3.739 5.19,-4.069 1.17,-0.2 2.35,-0.17 3.51,0.029 0.61,0.101 1.23,0.25 1.84,0.441 z" /></g><g
                 id="g134"
                 transform="translate(173.1463,76.9404)"><path
                   id="path132"
                   style="fill:#b3b4b4;fill-opacity:1;fill-rule:nonzero;stroke:none"
                   d="m 0,0 45,-50.681 -67.19,54.8 c 2.09,2.53 3.97,5.341 5.77,8.2 0.75,1.221 1.47,2.46 2.2,3.691 l 1.56,-1.76 c -0.3,-1.03 -0.57,-2.08 -0.75,-3.16 -0.44,-2.5 -0.45,-5.221 0.35,-7.601 0.87,-2.62 2.8,-4.569 4.97,-5.16 C -5.35,-2.421 -2.47,-1.65 0,0" /></g><g
                 id="g138"
                 transform="translate(203.616,86.5996)"><path
                   id="path136"
                   style="fill:#b3b4b4;fill-opacity:1;fill-rule:nonzero;stroke:none"
                   d="M 0,0 2.87,-8.689 C 2.48,-8.85 2.1,-8.989 1.7,-9.119 l -2.36,7.18 C -0.45,-1.29 -0.22,-0.649 0,0" /></g><g
                 id="g142"
                 transform="translate(202.9564,84.6602)"><path
                   id="path140"
                   style="fill:#dbdcdb;fill-opacity:1;fill-rule:nonzero;stroke:none"
                   d="M 0,0 2.36,-7.18 C 1.89,-7.33 1.41,-7.44 0.93,-7.49 0.45,-7.55 -0.04,-7.54 -0.53,-7.44 -1.39,-7.28 -1.94,-6 -1.61,-4.99 -1.09,-3.32 -0.55,-1.66 0,0" /></g><g
                 id="g146"
                 transform="translate(202.7762,111.79)"><path
                   id="path144"
                   style="fill:#ffffff;fill-opacity:1;fill-rule:nonzero;stroke:none"
                   d="m 0,0 c -1.37,-3.34 -2.77,-6.67 -4.17,-9.99 l -1.07,3.24 C -3.53,-4.45 -1.77,-2.22 0,0" /></g><g
                 id="g150"
                 transform="translate(197.536,105.04)"><path
                   id="path148"
                   style="fill:#b3b4b4;fill-opacity:1;fill-rule:nonzero;stroke:none"
                   d="M 0,0 1.07,-3.24 C 0.82,-3.82 0.58,-4.4 0.34,-4.98 l -1.25,3.77 c 0.1,0.14 0.21,0.27 0.3,0.42 0.2,0.269 0.41,0.53 0.61,0.79" /></g><g
                 id="g154"
                 transform="translate(169.8861,188.8999)"><path
                   id="path152"
                   style="fill:#b3b4b4;fill-opacity:1;fill-rule:nonzero;stroke:none"
                   d="m 0,0 26.69,-80.94 c -0.31,-0.4 -0.61,-0.79 -0.92,-1.18 L -1.31,0 Z" /></g><g
                 id="g158"
                 transform="translate(168.576,188.8999)"><path
                   id="path156"
                   style="fill:#dbdcdb;fill-opacity:1;fill-rule:nonzero;stroke:none"
                   d="m 0,0 27.08,-82.12 c -1.22,-1.56 -2.44,-3.1 -3.68,-4.63 -2.34,-2.919 -4.71,-5.81 -7.09,-8.68 -3.31,-3.98 -6.55,-8.08 -10.16,-11.61 -1.13,-1.07 -2.35,-2.12 -3.74,-2.49 l -1.65,1.861 c 0.06,0.279 0.13,0.559 0.2,0.819 0.83,2.78 1.95,5.391 3.04,8 4.71,10.92 9.43,21.83 14.15,32.75 -4.77,-0.35 -9.54,-0.71 -14.3,-1.069 -4.72,-9.281 -9.48,-18.571 -14.89,-27.221 l -5.51,6.21 c 0.09,0.18 0.17,0.36 0.26,0.55 3.25,7.18 6.51,14.35 9.77,21.53 -4.29,-0.359 -8.58,-0.71 -12.87,-1.069 -2.38,-3.261 -4.86,-6.411 -7.36,-9.521 l -12.47,14.04 c 2.27,6.61 4.54,13.22 6.95,19.75 1.82,4.79 3.62,9.64 6.09,13.95 1.41,2.46 3.11,4.71 5.18,6.25 0.89,0.61 1.82,1.14 2.77,1.56 0.95,0.43 1.93,0.76 2.92,0.96 0.82,0.24 1.67,0.25 2.48,0.56 0.52,0.18 0.69,1.22 0.17,1.55 -0.98,0.61 -2.1,0.35 -3.15,0.39 -12.72,-0.18 -25.33,-4 -36.95,-10.57 -3.66,-2.06 -7.26,-4.4 -10.64,-7.169 L -94.86,0 Z" /></g><g
                 id="g162"
                 transform="translate(191.9764,102.1504)"><path
                   id="path160"
                   style="fill:#000000;fill-opacity:1;fill-rule:nonzero;stroke:none"
                   d="m 0,0 1.73,-1.391 c -3.17,-4.019 -6.25,-8.149 -9.49,-12.08 -3.36,-4.12 -6.58,-8.609 -10.71,-11.5 -0.12,-0.08 -0.24,-0.16 -0.36,-0.239 -2.47,-1.65 -5.35,-2.421 -8.09,-1.671 -2.17,0.591 -4.1,2.54 -4.97,5.16 -0.8,2.38 -0.79,5.101 -0.35,7.601 0.18,1.08 0.45,2.13 0.75,3.16 0.39,1.31 0.83,2.579 1.29,3.84 1,2.819 2.06,5.609 3.14,8.38 -1.95,-3.531 -3.95,-7.01 -5.99,-10.46 -0.73,-1.231 -1.45,-2.47 -2.2,-3.691 -1.8,-2.859 -3.68,-5.67 -5.77,-8.2 -0.12,-0.149 -0.24,-0.29 -0.37,-0.439 l -1.93,1.55 c 0.13,0.15 0.27,0.299 0.4,0.45 1.8,2.009 3.42,4.28 5.02,6.55 1.19,1.75 2.34,3.53 3.46,5.339 5.41,8.651 10.17,17.941 14.89,27.221 4.76,0.359 9.53,0.72 14.3,1.069 -4.72,-10.92 -9.44,-21.83 -14.15,-32.75 -1.09,-2.609 -2.21,-5.219 -3.04,-8 -0.07,-0.259 -0.14,-0.54 -0.2,-0.819 -0.11,-0.45 -0.18,-0.921 -0.06,-1.391 0.27,-0.66 0.95,-0.62 1.44,-0.54 0.09,0.021 0.18,0.05 0.27,0.071 1.39,0.37 2.61,1.42 3.74,2.49 3.61,3.529 6.85,7.63 10.16,11.609 C -4.71,-5.811 -2.34,-2.92 0,0" /></g><g
                 id="g166"
                 transform="translate(160.7659,220.77)"><path
                   id="path164"
                   style="fill:#000000;fill-opacity:1;fill-rule:nonzero;stroke:none"
                   d="m 0,0 c 0.2,3.55 0.1,7.15 -1.01,10.6 -0.99,3.11 -2.97,6.11 -6.16,7.98 -3.76,2.22 -8.61,2.65 -13.06,2.13 -3.47,-0.42 -6.81,-1.87 -9.02,-4.19 -2.94,-3.04 -4.07,-7 -4.48,-10.83 -0.37,-3.98 -0.2,-8.05 1.2,-11.88 1.1,-2.99 3.14,-5.82 6.21,-7.66 3.89,-2.36 9.06,-2.93 13.66,-1.96 4.54,0.94 8.5,3.67 10.46,7.25 1.48,2.67 2,5.64 2.2,8.56 m 15.07,17.18 c 2.51,-4.92 3.39,-10.33 3.26,-15.65 -0.14,-6.77 -2.04,-13.75 -6.87,-19.29 -3.84,-4.46 -9.6,-7.62 -15.88,-9.11 -6,-1.45 -12.37,-1.66 -18.56,-1.07 -7.43,0.72 -14.81,3.25 -19.99,7.9 -5.84,5.14 -8.55,12.27 -9.07,19.25 -0.54,7.26 0.72,14.86 5.23,21.18 3.32,4.73 8.61,8.41 14.7,10.35 3.37,1.1 6.93,1.72 10.52,1.99 8.2,0.53 16.8,-0.27 24.09,-3.67 5.65,-2.6 10.07,-6.91 12.57,-11.88" /></g><g
                 id="g170"
                 transform="translate(169.3363,81.2305)"><path
                   id="path168"
                   style="fill:#b3b4b4;fill-opacity:1;fill-rule:nonzero;stroke:none"
                   d="M 0,0 1.65,-1.86 C 1.56,-1.881 1.47,-1.91 1.38,-1.931 0.89,-2.011 0.21,-2.051 -0.06,-1.391 -0.18,-0.921 -0.11,-0.45 0,0" /></g><g
                 id="g174"
                 transform="translate(164.9163,103.4102)"><path
                   id="path172"
                   style="fill:#dbdcdb;fill-opacity:1;fill-rule:nonzero;stroke:none"
                   d="m 0,0 c -1.08,-2.771 -2.14,-5.561 -3.14,-8.38 -0.46,-1.261 -0.9,-2.53 -1.29,-3.84 l -1.56,1.76 C -3.95,-7.01 -1.95,-3.53 0,0" /></g><g
                 id="g178"
                 transform="translate(162.056,122.7998)"><path
                   id="path176"
                   style="fill:#000000;fill-opacity:1;fill-rule:nonzero;stroke:none"
                   d="m 0,0 c -3.26,-7.18 -6.52,-14.35 -9.77,-21.53 -0.09,-0.19 -0.17,-0.369 -0.26,-0.55 -2.25,-5.01 -4.59,-9.96 -6.68,-15.08 -0.08,-0.21 -0.17,-0.409 -0.25,-0.61 l -9.47,7.621 c 0.09,0.239 0.17,0.479 0.25,0.719 0.29,0.84 0.6,1.67 0.93,2.491 2.02,4.989 4.28,9.809 6.59,14.569 0.23,0.46 0.45,0.92 0.67,1.37 -0.3,-0.37 -0.59,-0.74 -0.89,-1.109 -1.61,-2.031 -3.22,-4.061 -4.77,-6.161 -0.91,-1.22 -1.77,-2.58 -2.95,-3.379 -0.52,-0.381 -1.48,-0.221 -1.51,0.719 -0.06,1.13 0.7,1.951 1.31,2.62 1.49,1.43 2.86,3.06 4.18,4.741 0.8,0.989 1.59,1.979 2.39,2.979 2.5,3.111 4.98,6.26 7.36,9.521 C -8.58,-0.71 -4.29,-0.359 0,0" /></g><g
                 id="g182"
                 transform="translate(152.0262,100.7197)"><path
                   id="path180"
                   style="fill:#b3b4b4;fill-opacity:1;fill-rule:nonzero;stroke:none"
                   d="M 0,0 5.51,-6.21 C 4.39,-8.02 3.24,-9.8 2.05,-11.55 c -1.6,-2.269 -3.22,-4.54 -5.02,-6.55 l -3.71,3.02 C -4.59,-9.96 -2.25,-5.01 0,0" /></g><g
                 id="g186"
                 transform="translate(155.9163,170.8301)"><path
                   id="path184"
                   style="fill:#000000;fill-opacity:1;fill-rule:nonzero;stroke:none"
                   d="m 0,0 c 0.52,-0.33 0.35,-1.37 -0.17,-1.55 -0.81,-0.31 -1.66,-0.32 -2.48,-0.56 -0.99,-0.2 -1.97,-0.53 -2.92,-0.96 l -2.22,0.58 c -9.68,-0.6 -19.18,-4.29 -27.65,-10.281 -3.85,-2.75 -7.56,-5.859 -10.93,-9.509 -0.67,-0.73 -1.33,-1.47 -1.97,-2.241 -4.38,-5.309 -8.31,-11.319 -11.18,-18.139 -0.26,-0.651 -0.52,-1.31 -0.77,-1.98 -0.13,-0.35 -0.25,-0.7 -0.37,-1.06 l -5.85,4.71 c 0.07,0.32 0.14,0.63 0.22,0.94 0.03,0.08 0.06,0.16 0.08,0.239 1.76,6.511 5.29,11.971 9.25,16.521 1.95,2.19 4.04,4.15 6.22,5.94 3.38,2.77 6.98,5.11 10.64,7.17 11.62,6.57 24.23,10.39 36.95,10.57 C -2.1,0.35 -0.98,0.61 0,0" /></g><g
                 id="g190"
                 transform="translate(148.6561,82.1699)"><path
                   id="path188"
                   style="fill:#000000;fill-opacity:1;fill-rule:nonzero;stroke:none"
                   d="M 0,0 1.93,-1.55 C 1.64,-1.89 1.35,-2.24 1.05,-2.57 -0.9,-4.66 -3.13,-6.55 -5.69,-7.04 c -2.31,-0.47 -4.91,0.07 -6.62,2.26 -1.71,2.07 -2.31,5.22 -2.15,8.15 0.13,2.47 0.69,4.84 1.43,7.11 L -3.56,2.86 C -3.59,2.79 -3.62,2.71 -3.65,2.64 -4.04,1.61 -4.48,0.58 -4.69,-0.54 c -0.16,-1.02 0.61,-2.08 1.43,-1.91 1,0.2 1.84,1.011 2.63,1.77 0.21,0.22 0.42,0.451 0.63,0.68" /></g><g
                 id="g194"
                 transform="translate(148.1263,168.3398)"><path
                   id="path192"
                   style="fill:#000000;fill-opacity:1;fill-rule:nonzero;stroke:none"
                   d="M 0,0 2.22,-0.58 C 1.27,-1 0.34,-1.53 -0.55,-2.14 -2.62,-3.68 -4.32,-5.93 -5.73,-8.39 -8.2,-12.7 -10,-17.55 -11.82,-22.34 c -2.41,-6.53 -4.68,-13.139 -6.95,-19.75 -1.23,-3.559 -2.46,-7.12 -3.7,-10.67 -1.25,-3.599 -2.55,-7.17 -3.87,-10.73 -0.1,-0.27 -0.2,-0.55 -0.31,-0.82 l -10.06,8.1 c 0.12,0.29 0.25,0.59 0.37,0.88 1.88,4.431 3.78,8.84 5.75,13.2 1.35,2.92 2.72,5.82 4.14,8.691 3.5,7.08 7.28,13.939 11.74,20.089 C -10.62,-7.649 -5.74,-2.65 0,0" /></g><g
                 id="g198"
                 transform="translate(144.0662,111.7998)"><path
                   id="path196"
                   style="fill:#dbdcdb;fill-opacity:1;fill-rule:nonzero;stroke:none"
                   d="m 0,0 c -0.22,-0.45 -0.44,-0.91 -0.67,-1.37 l -0.22,0.261 C -0.59,-0.74 -0.3,-0.37 0,0" /></g><g
                 id="g202"
                 transform="translate(143.1761,110.6904)"><path
                   id="path200"
                   style="fill:#b3b4b4;fill-opacity:1;fill-rule:nonzero;stroke:none"
                   d="m 0,0 0.22,-0.261 c -2.31,-4.76 -4.57,-9.58 -6.59,-14.569 -0.33,-0.82 -0.64,-1.65 -0.93,-2.49 l -14.09,11.479 c 1.32,3.561 2.62,7.131 3.87,10.731 1.24,3.549 2.47,7.11 3.7,10.67 L -1.35,1.52 c -0.8,-1 -1.59,-1.991 -2.39,-2.98 -1.32,-1.681 -2.69,-3.311 -4.18,-4.74 -0.61,-0.67 -1.37,-1.49 -1.31,-2.62 0.03,-0.941 0.99,-1.101 1.51,-0.72 1.18,0.8 2.04,2.159 2.95,3.38 1.55,2.099 3.16,4.13 4.77,6.16" /></g><g
                 id="g206"
                 transform="translate(148.1263,168.3398)"><path
                   id="path204"
                   style="fill:#dbdcdb;fill-opacity:1;fill-rule:nonzero;stroke:none"
                   d="m 0,0 c -5.74,-2.65 -10.62,-7.649 -14.71,-13.35 -4.46,-6.15 -8.24,-13.009 -11.74,-20.089 l -12.13,13.649 c 3.37,3.65 7.08,6.76 10.93,9.51 C -19.18,-4.29 -9.68,-0.6 0,0" /></g><g
                 id="g210"
                 transform="translate(125.346,87.2197)"><path
                   id="path208"
                   style="fill:#000000;fill-opacity:1;fill-rule:nonzero;stroke:none"
                   d="m 0,0 c 2.15,-2.8 2.8,-7.05 2.19,-10.81 -0.63,-3.78 -2.48,-7.02 -4.63,-9.64 -2.95,-3.5 -6.61,-5.97 -10.45,-7.46 -2.21,-0.8 -4.54,-1.29 -6.84,-1.069 -0.77,-0.041 -1.39,1.279 -0.68,1.939 1.05,0.59 2.24,0.54 3.36,0.77 3.55,0.44 6.93,2.201 9.98,4.531 2.82,2.26 5.39,5.369 6.68,9.38 1.16,3.739 0.84,8.569 -1.57,11.409 -2.11,2.49 -5.14,3.04 -7.91,3.07 -4.03,-10.03 -9.01,-19.519 -15.2,-27.58 -3.3,-4.33 -6.91,-8.25 -10.65,-11.939 -5.58,-5.451 -11.66,-10.241 -18.39,-12.96 -1.78,-0.721 -3.66,-1.201 -5.54,-1.281 l -0.07,2.741 c 0.51,0.029 1.01,0.099 1.5,0.189 3.84,0.79 7.13,3.74 10.01,6.931 3.8,4.269 7.04,9.29 10.1,14.429 5.41,9.26 10.25,19.04 15.01,28.85 -1.29,-0.14 -2.58,-0.34 -3.87,-0.609 l -0.57,2.259 c 1.71,0.43 3.43,0.8 5.15,1.111 2.77,6.909 5.58,13.809 8.46,20.649 L -3.87,16.811 C -5.43,12.601 -7.04,8.42 -8.68,4.261 -5.55,4.07 -2.21,3.03 0,0" /></g><g
                 id="g214"
                 transform="translate(109.5462,148.5498)"><path
                   id="path212"
                   style="fill:#b3b4b4;fill-opacity:1;fill-rule:nonzero;stroke:none"
                   d="M 0,0 12.13,-13.649 C 10.71,-16.52 9.34,-19.42 7.99,-22.34 6.02,-26.7 4.12,-31.109 2.24,-35.54 l -16.16,13.181 c 0.25,0.67 0.51,1.329 0.77,1.979 2.87,6.82 6.8,12.83 11.18,18.14 0.64,0.77 1.3,1.511 1.97,2.24" /></g><g
                 id="g218"
                 transform="translate(109.2264,252.6401)"><path
                   id="path216"
                   style="fill:#000000;fill-opacity:1;fill-rule:nonzero;stroke:none"
                   d="m 0,0 v -11.95 c -11,-0.01 -22,0 -33,0 v -12.92 h 28.39 c -0.01,-3.87 -0.01,-7.74 0,-11.6 -9.47,-0.01 -18.93,0 -28.39,-0.01 v -25.01 -0.99 c -5.99,-0.01 -11.98,0 -17.97,0 h -41.06 -1.21 l 0.43,0.63 0.24,0.36 41.6,61.49 z" /></g><g
                 id="g222"
                 transform="translate(106.0462,109.7002)"><path
                   id="path220"
                   style="fill:#000000;fill-opacity:1;fill-rule:nonzero;stroke:none"
                   d="m 0,0 c 0.1,-0.96 -0.7,-1.46 -1.28,-1.75 -2.18,-0.97 -4.57,-1.08 -6.84,-0.62 -3.78,0.8 -7.01,4.43 -8.34,9 -1.24,4.309 -1.16,9.12 -0.18,13.51 l 5.85,-4.71 c -0.66,-1.9 -1.19,-3.87 -1.48,-5.92 -0.34,-2.83 0.1,-6.1 1.86,-8.071 1.72,-1.96 4.21,-2.159 6.39,-1.759 1.08,0.15 2.02,0.94 3.08,1.179 C -0.51,0.96 0.01,0.62 0,0" /></g><g
                 id="g226"
                 transform="translate(73.7161,188.8999)"><path
                   id="path224"
                   style="fill:#b3b4b4;fill-opacity:1;fill-rule:nonzero;stroke:none"
                   d="m 0,0 31.46,-35.419 c -2.18,-1.79 -4.27,-3.75 -6.22,-5.941 -3.96,-4.55 -7.49,-10.01 -9.25,-16.52 L -54.98,0 Z" /></g><g
                 id="g230"
                 transform="translate(97.806,90.3701)"><path
                   id="path228"
                   style="fill:#000000;fill-opacity:1;fill-rule:nonzero;stroke:none"
                   d="m 0,0 0.57,-2.26 c -2.13,-0.45 -4.25,-1.091 -6.31,-1.93 -7.09,-2.871 -13.47,-8.11 -19.08,-14.31 -3.83,-4.22 -7.39,-8.92 -10.26,-14.271 -1.52,-2.909 -2.94,-5.989 -3.63,-9.399 -0.56,-2.891 -0.1,-6.4 1.82,-8.32 1.34,-1.31 3.05,-1.65 4.71,-1.56 l 0.07,-2.74 c -1.82,-0.09 -3.63,0.189 -5.36,0.97 -2.04,0.91 -3.79,2.91 -4.64,5.48 -1,2.96 -1.16,6.3 -0.85,9.47 0.58,4.86 2.6,9.22 4.97,13.019 5.3,8.29 12.51,14.25 20.07,18.621 5.71,3.37 11.76,5.7 17.92,7.23" /></g><g
                 id="g234"
                 transform="translate(89.7064,131.0195)"><path
                   id="path232"
                   style="fill:#b3b4b4;fill-opacity:1;fill-rule:nonzero;stroke:none"
                   d="M 0,0 C -0.02,-0.079 -0.05,-0.159 -0.08,-0.239 -0.16,-0.55 -0.23,-0.859 -0.3,-1.18 l -73.42,59.06 h 1.31 1.44 z" /></g><g
                 id="g238"
                 transform="translate(76.2264,190.1602)"><path
                   id="path236"
                   style="fill:#b3b4b4;fill-opacity:1;fill-rule:nonzero;stroke:none"
                   d="M 0,0 V -0.01 H -59.03 V 0 h 41.06 C -11.98,0 -5.99,-0.01 0,0" /></g><g
                 id="g242"
                 transform="translate(17.2962,189.1499)"><path
                   id="path240"
                   style="fill:#b3b5b5;fill-opacity:1;fill-rule:nonzero;stroke:none"
                   d="M 0,0 V -0.25 H -1.31 V 0.38 H 0 Z" /></g></g></g></g></g></g></g></svg>